# Blender 3.5.0
# www.blender.org
mtllib agua.mtl
o Cube.003
v -1.000000 -0.050000 2.000000
v -1.000000 0.050000 2.000000
v -1.000000 -0.050000 -2.000000
v -1.000000 0.050000 -2.000000
v 1.000000 -0.050000 2.000000
v 1.000000 0.050000 2.000000
v 1.000000 -0.050000 -2.000000
v 1.000000 0.050000 -2.000000
vn -1.0000 -0.0000 -0.0000
vn -0.0000 -0.0000 -1.0000
vn 1.0000 -0.0000 -0.0000
vn -0.0000 -0.0000 1.0000
vn -0.0000 -1.0000 -0.0000
vn -0.0000 1.0000 -0.0000
vt 0.375000 0.000000
vt 0.375000 1.000000
vt 0.000026 1.000000
vt 0.625000 0.000000
vt 0.625000 1.000000
vt 0.999955 1.000014
vt 0.375000 0.250000
vt 0.000000 0.000026
vt 0.625000 0.250000
vt 1.000143 -0.000033
vt 0.375000 0.750000
vt 0.999854 1.000040
vt 0.625000 0.750000
vt -0.000037 1.000101
vt 0.375000 0.500000
vt 1.000112 0.000068
vt 0.625000 0.500000
vt 0.000393 0.000296
s 0
usemtl Material.001
f 1/1/1 2/4/1 4/9/1 3/7/1
f 3/7/2 4/9/2 8/17/2 7/15/2
f 7/15/3 8/17/3 6/13/3 5/11/3
f 5/11/4 6/13/4 2/5/4 1/2/4
f 3/8/5 7/16/5 5/12/5 1/3/5
f 8/18/6 4/10/6 2/6/6 6/14/6
