# Blender 3.5.0
# www.blender.org
mtllib metal.mtl
o Cube.009
v -1.000000 -1.000000 -1.000000
v -1.000000 1.000000 -1.000000
v 1.000000 -1.000000 1.000000
v 1.000000 1.000000 1.000000
v -1.000000 0.840200 0.613137
v -1.000000 1.000000 0.613137
v -1.000000 1.000000 0.386863
v -1.000000 0.840200 0.386863
v 0.386863 0.840200 -1.000000
v 0.386863 1.000000 -1.000000
v 0.613137 1.000000 -1.000000
v 0.613137 0.840200 -1.000000
v -1.000000 1.000000 -0.113137
v -1.000000 1.000000 0.113137
v -1.000000 0.840200 0.113137
v -1.000000 0.840200 -0.113137
v -0.113137 0.840200 -1.000000
v -0.113137 1.000000 -1.000000
v 0.113137 1.000000 -1.000000
v 0.113137 0.840200 -1.000000
v -1.000000 0.840200 -0.386863
v -1.000000 1.000000 -0.386863
v -1.000000 0.840200 -0.613137
v -1.000000 1.000000 -0.613137
v -0.613137 1.000000 -1.000000
v -0.386863 1.000000 -1.000000
v -0.613137 0.840200 -1.000000
v -0.386863 0.840200 -1.000000
v -1.000000 0.840200 1.000000
v -1.000000 0.840200 0.886863
v -1.000000 1.000000 0.886863
v 0.886863 0.840200 -1.000000
v 1.000000 0.840200 -1.000000
v 0.886863 1.000000 -1.000000
v 1.000000 0.840200 -0.886863
v 1.000000 1.000000 -0.886863
v -0.886863 1.000000 1.000000
v -0.886863 0.840200 1.000000
v 1.000000 1.000000 -0.386863
v 1.000000 1.000000 -0.613137
v 1.000000 0.840200 -0.386863
v 1.000000 0.840200 -0.613137
v -0.386863 1.000000 1.000000
v -0.613137 1.000000 1.000000
v -0.613137 0.840200 1.000000
v -0.386863 0.840200 1.000000
v 1.000000 0.840200 0.113137
v 1.000000 1.000000 0.113137
v 1.000000 1.000000 -0.113137
v 1.000000 0.840200 -0.113137
v 0.113137 1.000000 1.000000
v -0.113137 1.000000 1.000000
v -0.113137 0.840200 1.000000
v 0.113137 0.840200 1.000000
v 1.000000 1.000000 0.613137
v 1.000000 1.000000 0.386863
v 1.000000 0.840200 0.613137
v 1.000000 0.840200 0.386863
v 0.613137 1.000000 1.000000
v 0.386863 1.000000 1.000000
v 0.386863 0.840200 1.000000
v 0.613137 0.840200 1.000000
v 1.000000 -0.840200 0.613137
v 1.000000 -1.000000 0.613137
v 1.000000 -0.840200 0.386863
v 1.000000 -1.000000 0.386863
v 0.386863 -0.840200 1.000000
v 0.386863 -1.000000 1.000000
v 0.613137 -0.840200 1.000000
v 0.613137 -1.000000 1.000000
v 1.000000 -1.000000 0.113137
v 1.000000 -1.000000 -0.113137
v 1.000000 -0.840200 0.113137
v 1.000000 -0.840200 -0.113137
v -0.113137 -1.000000 1.000000
v 0.113137 -1.000000 1.000000
v -0.113137 -0.840200 1.000000
v 0.113137 -0.840200 1.000000
v 1.000000 -1.000000 -0.386863
v 1.000000 -1.000000 -0.613137
v 1.000000 -0.840200 -0.386863
v 1.000000 -0.840200 -0.613137
v -0.613137 -1.000000 1.000000
v -0.386863 -1.000000 1.000000
v -0.613137 -0.840200 1.000000
v -0.386863 -0.840200 1.000000
v -1.000000 -0.840200 1.000000
v -1.000000 -1.000000 0.886863
v -1.000000 -0.840200 0.886863
v 0.886863 -1.000000 -1.000000
v 0.886863 -0.840200 -1.000000
v 1.000000 -0.840200 -1.000000
v 1.000000 -1.000000 -0.886863
v 1.000000 -0.840200 -0.886863
v -0.886863 -1.000000 1.000000
v -0.886863 -0.840200 1.000000
v -1.000000 -1.000000 0.613137
v -1.000000 -1.000000 0.386863
v -1.000000 -0.840200 0.613137
v -1.000000 -0.840200 0.386863
v 0.386863 -1.000000 -1.000000
v 0.613137 -1.000000 -1.000000
v 0.386863 -0.840200 -1.000000
v 0.613137 -0.840200 -1.000000
v -1.000000 -1.000000 0.113137
v -1.000000 -1.000000 -0.113137
v -1.000000 -0.840200 0.113137
v -1.000000 -0.840200 -0.113137
v -0.113137 -1.000000 -1.000000
v 0.113137 -1.000000 -1.000000
v -0.113137 -0.840200 -1.000000
v 0.113137 -0.840200 -1.000000
v -1.000000 -1.000000 -0.386863
v -1.000000 -1.000000 -0.613137
v -1.000000 -0.840200 -0.386863
v -1.000000 -0.840200 -0.613137
v -0.613137 -1.000000 -1.000000
v -0.386863 -1.000000 -1.000000
v -0.613137 -0.840200 -1.000000
v -0.386863 -0.840200 -1.000000
v 1.100000 0.840200 0.613137
v 1.100000 0.840200 0.386863
v 1.100000 -0.840200 0.613137
v 1.100000 -0.840200 0.386863
v 1.100000 -0.840200 0.113137
v 1.100000 -0.840200 -0.113137
v 1.100000 0.840200 0.113137
v 1.100000 0.840200 -0.113137
v 1.100000 0.840200 -0.386863
v 1.100000 0.840200 -0.613137
v 1.100000 -0.840200 -0.386863
v 1.100000 -0.840200 -0.613137
v 0.386863 -0.840200 1.100000
v 0.613137 -0.840200 1.100000
v 0.386863 0.840200 1.100000
v 0.613137 0.840200 1.100000
v -0.113137 -0.840200 1.100000
v 0.113137 -0.840200 1.100000
v -0.113137 0.840200 1.100000
v 0.113137 0.840200 1.100000
v -0.613137 0.840200 1.100000
v -0.386863 0.840200 1.100000
v -0.613137 -0.840200 1.100000
v -0.386863 -0.840200 1.100000
v -1.100000 0.840200 0.613137
v -1.100000 0.840200 0.386863
v -1.100000 -0.840200 0.613137
v -1.100000 -0.840200 0.386863
v -1.100000 0.840200 0.113137
v -1.100000 0.840200 -0.113137
v -1.100000 -0.840200 0.113137
v -1.100000 -0.840200 -0.113137
v -1.100000 0.840200 -0.386863
v -1.100000 0.840200 -0.613137
v -1.100000 -0.840200 -0.386863
v -1.100000 -0.840200 -0.613137
v -0.613137 0.840200 -1.100000
v -0.386863 0.840200 -1.100000
v -0.613137 -0.840200 -1.100000
v -0.386863 -0.840200 -1.100000
v -0.113137 0.840200 -1.100000
v 0.113137 0.840200 -1.100000
v -0.113137 -0.840200 -1.100000
v 0.113137 -0.840200 -1.100000
v 0.386863 0.840200 -1.100000
v 0.613137 0.840200 -1.100000
v 0.386863 -0.840200 -1.100000
v 0.613137 -0.840200 -1.100000
vn -1.0000 -0.0000 -0.0000
vn -0.0000 -0.0000 -1.0000
vn -0.0000 -0.0000 1.0000
vn -0.0000 -1.0000 -0.0000
vn -0.0000 1.0000 -0.0000
vn 1.0000 -0.0000 -0.0000
vn 0.7071 -0.0000 0.7071
vn -0.7071 -0.0000 -0.7071
vt 0.125000 0.500000
vt 0.375000 0.250000
vt 0.875000 0.500000
vt 0.625000 0.250000
vt 0.375000 0.750000
vt 0.625000 0.750000
vt 0.605025 0.048358
vt 0.375000 0.968388
vt 0.156612 0.750000
vt 0.625000 0.048358
vt 0.875000 0.701642
vt 0.624687 0.968388
vt 0.875000 0.673358
vt 0.625000 0.076642
vt 0.624687 0.291612
vt 0.605025 0.076642
vt 0.375000 0.291612
vt 0.166612 0.500000
vt 0.605025 0.423358
vt 0.375000 0.414194
vt 0.289194 0.500000
vt 0.625000 0.423358
vt 0.701642 0.500000
vt 0.624687 0.414194
vt 0.673358 0.500000
vt 0.625000 0.451642
vt 0.624687 0.825806
vt 0.605025 0.451642
vt 0.375000 0.825806
vt 0.299194 0.750000
vt 0.875000 0.610858
vt 0.625000 0.139142
vt 0.624687 0.291612
vt 0.875000 0.639142
vt 0.625000 0.110858
vt 0.624687 0.968388
vt 0.605025 0.110858
vt 0.375000 0.968388
vt 0.156612 0.750000
vt 0.605025 0.139142
vt 0.375000 0.291612
vt 0.166612 0.500000
vt 0.605025 0.360858
vt 0.375000 0.370000
vt 0.245000 0.500000
vt 0.764142 0.500000
vt 0.625000 0.360858
vt 0.624687 0.370000
vt 0.625000 0.389142
vt 0.735858 0.500000
vt 0.624687 0.870000
vt 0.605025 0.389142
vt 0.375000 0.870000
vt 0.255000 0.750000
vt 0.605025 0.173358
vt 0.375000 0.968388
vt 0.156612 0.750000
vt 0.875000 0.576642
vt 0.625000 0.173358
vt 0.624687 0.968388
vt 0.605025 0.201642
vt 0.375000 0.291612
vt 0.166612 0.500000
vt 0.875000 0.548358
vt 0.625000 0.201642
vt 0.624687 0.291612
vt 0.826642 0.500000
vt 0.625000 0.298358
vt 0.624687 0.325806
vt 0.798358 0.500000
vt 0.625000 0.326642
vt 0.624687 0.914194
vt 0.605025 0.298358
vt 0.375000 0.325806
vt 0.200806 0.500000
vt 0.605025 0.326642
vt 0.375000 0.914194
vt 0.210806 0.750000
vt 0.605025 0.000000
vt 0.605025 1.000000
vt 0.161612 0.625000
vt 0.605025 0.014142
vt 0.375000 0.291612
vt 0.166612 0.500000
vt 0.625000 0.014142
vt 0.875000 0.735858
vt 0.624687 0.291612
vt 0.605025 0.485858
vt 0.375000 0.458388
vt 0.333388 0.500000
vt 0.605025 0.500000
vt 0.338388 0.625000
vt 0.639142 0.500000
vt 0.625000 0.485858
vt 0.624687 0.458388
vt 0.605025 0.514142
vt 0.375000 0.791612
vt 0.333388 0.750000
vt 0.625000 0.514142
vt 0.624687 0.791612
vt 0.860858 0.750000
vt 0.625000 0.985858
vt 0.624687 0.958388
vt 0.605025 0.985858
vt 0.375000 0.958388
vt 0.166612 0.750000
vt 0.625000 0.576642
vt 0.624687 0.791612
vt 0.625000 0.548358
vt 0.624687 0.468388
vt 0.605025 0.576642
vt 0.375000 0.791612
vt 0.333388 0.750000
vt 0.605025 0.548358
vt 0.375000 0.468388
vt 0.343388 0.500000
vt 0.798358 0.750000
vt 0.625000 0.923358
vt 0.624687 0.914194
vt 0.826642 0.750000
vt 0.625000 0.951642
vt 0.624687 0.325806
vt 0.605025 0.951642
vt 0.375000 0.325806
vt 0.200806 0.500000
vt 0.605025 0.923358
vt 0.375000 0.914194
vt 0.210806 0.750000
vt 0.605025 0.639142
vt 0.375000 0.791612
vt 0.333388 0.750000
vt 0.625000 0.639142
vt 0.624687 0.791612
vt 0.625000 0.610858
vt 0.624687 0.468388
vt 0.605025 0.610858
vt 0.375000 0.468388
vt 0.343388 0.500000
vt 0.625000 0.860858
vt 0.735858 0.750000
vt 0.624687 0.870000
vt 0.764142 0.750000
vt 0.625000 0.889142
vt 0.624687 0.370000
vt 0.605025 0.889142
vt 0.375000 0.370000
vt 0.245000 0.500000
vt 0.605025 0.860858
vt 0.375000 0.870000
vt 0.255000 0.750000
vt 0.625000 0.701642
vt 0.624687 0.791612
vt 0.625000 0.673358
vt 0.624687 0.468388
vt 0.605025 0.701642
vt 0.375000 0.791612
vt 0.333388 0.750000
vt 0.605025 0.673358
vt 0.375000 0.468388
vt 0.343388 0.500000
vt 0.673358 0.750000
vt 0.625000 0.798358
vt 0.624687 0.825806
vt 0.625000 0.826642
vt 0.701642 0.750000
vt 0.624687 0.414194
vt 0.605025 0.826642
vt 0.375000 0.414194
vt 0.289194 0.500000
vt 0.605025 0.798358
vt 0.375000 0.825806
vt 0.299194 0.750000
vt 0.394975 0.701642
vt 0.625000 0.791612
vt 0.666612 0.750000
vt 0.375000 0.701642
vt 0.375313 0.791612
vt 0.394975 0.673358
vt 0.625000 0.468388
vt 0.656612 0.500000
vt 0.375000 0.673358
vt 0.375313 0.468388
vt 0.394975 0.826642
vt 0.625000 0.414194
vt 0.710806 0.500000
vt 0.375000 0.826642
vt 0.298358 0.750000
vt 0.375313 0.414194
vt 0.394975 0.798358
vt 0.625000 0.825806
vt 0.700806 0.750000
vt 0.326642 0.750000
vt 0.375000 0.798358
vt 0.375313 0.825806
vt 0.375000 0.639142
vt 0.375313 0.791612
vt 0.375000 0.610858
vt 0.375313 0.468388
vt 0.394975 0.639142
vt 0.625000 0.791612
vt 0.666612 0.750000
vt 0.394975 0.610858
vt 0.625000 0.468388
vt 0.656612 0.500000
vt 0.235858 0.750000
vt 0.375000 0.889142
vt 0.375313 0.370000
vt 0.375000 0.860858
vt 0.264142 0.750000
vt 0.375313 0.870000
vt 0.394975 0.889142
vt 0.625000 0.370000
vt 0.755000 0.500000
vt 0.394975 0.860858
vt 0.625000 0.870000
vt 0.745000 0.750000
vt 0.375000 0.576642
vt 0.375313 0.791612
vt 0.375000 0.548358
vt 0.375313 0.468388
vt 0.394975 0.576642
vt 0.625000 0.791612
vt 0.666612 0.750000
vt 0.394975 0.548358
vt 0.625000 0.468388
vt 0.656612 0.500000
vt 0.173358 0.750000
vt 0.375000 0.951642
vt 0.375313 0.325806
vt 0.201642 0.750000
vt 0.375000 0.923358
vt 0.375313 0.914194
vt 0.394975 0.951642
vt 0.625000 0.325806
vt 0.799194 0.500000
vt 0.394975 0.923358
vt 0.625000 0.914194
vt 0.789194 0.750000
vt 0.394975 0.000000
vt 0.394975 1.000000
vt 0.838388 0.625000
vt 0.375000 0.014142
vt 0.125000 0.735858
vt 0.375313 0.291612
vt 0.394975 0.014142
vt 0.625000 0.291612
vt 0.833388 0.500000
vt 0.360858 0.500000
vt 0.375000 0.485858
vt 0.375313 0.458388
vt 0.394975 0.485858
vt 0.625000 0.458388
vt 0.666612 0.500000
vt 0.394975 0.500000
vt 0.661612 0.625000
vt 0.375000 0.514142
vt 0.375313 0.791612
vt 0.394975 0.514142
vt 0.625000 0.791612
vt 0.666612 0.750000
vt 0.139142 0.750000
vt 0.375000 0.985858
vt 0.375313 0.958388
vt 0.394975 0.985858
vt 0.625000 0.958388
vt 0.833388 0.750000
vt 0.375000 0.048358
vt 0.125000 0.701642
vt 0.375313 0.968388
vt 0.125000 0.673358
vt 0.375000 0.076642
vt 0.375313 0.291612
vt 0.394975 0.048358
vt 0.625000 0.968388
vt 0.843388 0.750000
vt 0.394975 0.076642
vt 0.625000 0.291612
vt 0.833388 0.500000
vt 0.375000 0.423358
vt 0.298358 0.500000
vt 0.375313 0.414194
vt 0.326642 0.500000
vt 0.375000 0.451642
vt 0.375313 0.825806
vt 0.394975 0.423358
vt 0.625000 0.414194
vt 0.710806 0.500000
vt 0.394975 0.451642
vt 0.625000 0.825806
vt 0.700806 0.750000
vt 0.125000 0.639142
vt 0.375000 0.110858
vt 0.375313 0.968388
vt 0.125000 0.610858
vt 0.375000 0.139142
vt 0.375313 0.291612
vt 0.394975 0.110858
vt 0.625000 0.968388
vt 0.843388 0.750000
vt 0.394975 0.139142
vt 0.625000 0.291612
vt 0.833388 0.500000
vt 0.235858 0.500000
vt 0.375000 0.360858
vt 0.375313 0.370000
vt 0.375000 0.389142
vt 0.264142 0.500000
vt 0.375313 0.870000
vt 0.394975 0.360858
vt 0.625000 0.370000
vt 0.755000 0.500000
vt 0.394975 0.389142
vt 0.625000 0.870000
vt 0.745000 0.750000
vt 0.125000 0.576642
vt 0.375000 0.173358
vt 0.375313 0.968388
vt 0.125000 0.548358
vt 0.375000 0.201642
vt 0.375313 0.291612
vt 0.394975 0.173358
vt 0.625000 0.968388
vt 0.843388 0.750000
vt 0.394975 0.201642
vt 0.625000 0.291612
vt 0.833388 0.500000
vt 0.173358 0.500000
vt 0.375000 0.298358
vt 0.375313 0.325806
vt 0.201642 0.500000
vt 0.375000 0.326642
vt 0.375313 0.914194
vt 0.394975 0.298358
vt 0.625000 0.325806
vt 0.799194 0.500000
vt 0.394975 0.326642
vt 0.625000 0.914194
vt 0.789194 0.750000
vt 0.605025 0.701642
vt 0.333388 0.750000
vt 0.605025 0.673358
vt 0.343388 0.500000
vt 0.394975 0.701642
vt 0.666612 0.750000
vt 0.394975 0.673358
vt 0.656612 0.500000
vt 0.394975 0.639142
vt 0.666612 0.750000
vt 0.394975 0.610858
vt 0.656612 0.500000
vt 0.605025 0.639142
vt 0.333388 0.750000
vt 0.605025 0.610858
vt 0.343388 0.500000
vt 0.605025 0.576642
vt 0.333388 0.750000
vt 0.605025 0.548358
vt 0.343388 0.500000
vt 0.394975 0.576642
vt 0.666612 0.750000
vt 0.394975 0.548358
vt 0.656612 0.500000
vt 0.394975 0.826642
vt 0.710806 0.500000
vt 0.394975 0.798358
vt 0.700806 0.750000
vt 0.605025 0.826642
vt 0.289194 0.500000
vt 0.605025 0.798358
vt 0.299194 0.750000
vt 0.394975 0.889142
vt 0.755000 0.500000
vt 0.394975 0.860858
vt 0.745000 0.750000
vt 0.605025 0.889142
vt 0.245000 0.500000
vt 0.605025 0.860858
vt 0.255000 0.750000
vt 0.605025 0.951642
vt 0.200806 0.500000
vt 0.605025 0.923358
vt 0.210806 0.750000
vt 0.394975 0.951642
vt 0.799194 0.500000
vt 0.394975 0.923358
vt 0.789194 0.750000
vt 0.605025 0.048358
vt 0.156612 0.750000
vt 0.605025 0.076642
vt 0.166612 0.500000
vt 0.394975 0.048358
vt 0.843388 0.750000
vt 0.394975 0.076642
vt 0.833388 0.500000
vt 0.605025 0.110858
vt 0.156612 0.750000
vt 0.605025 0.139142
vt 0.166612 0.500000
vt 0.394975 0.110858
vt 0.843388 0.750000
vt 0.394975 0.139142
vt 0.833388 0.500000
vt 0.605025 0.173358
vt 0.156612 0.750000
vt 0.605025 0.201642
vt 0.166612 0.500000
vt 0.394975 0.173358
vt 0.843388 0.750000
vt 0.394975 0.201642
vt 0.833388 0.500000
vt 0.605025 0.298358
vt 0.200806 0.500000
vt 0.605025 0.326642
vt 0.210806 0.750000
vt 0.394975 0.298358
vt 0.799194 0.500000
vt 0.394975 0.326642
vt 0.789194 0.750000
vt 0.605025 0.360858
vt 0.245000 0.500000
vt 0.605025 0.389142
vt 0.255000 0.750000
vt 0.394975 0.360858
vt 0.755000 0.500000
vt 0.394975 0.389142
vt 0.745000 0.750000
vt 0.605025 0.423358
vt 0.289194 0.500000
vt 0.605025 0.451642
vt 0.299194 0.750000
vt 0.394975 0.423358
vt 0.710806 0.500000
vt 0.394975 0.451642
vt 0.700806 0.750000
s 0
usemtl Material.002
f 30/82/1 31/85/1 6/10/1 5/7/1 99/273/1 97/267/1 88/242/1 89/245/1 87/239/1 29/79/1
f 20/52/2 19/49/2 10/22/2 9/19/2 103/285/2 101/279/2 110/306/2 112/312/2
f 57/155/3 63/173/3 123/343/3 121/339/3
f 60/164/3 51/139/3 54/148/3 78/214/3 76/208/3 68/186/3 67/183/3 61/167/3
f 70/192/4 64/176/4 3/5/4
f 66/181/4 68/187/4 76/209/4 71/195/4
f 90/248/4 88/243/4 97/268/4 102/282/4
f 101/280/4 98/270/4 105/291/4 110/307/4
f 109/303/4 106/294/4 113/315/4 118/330/4
f 117/327/4 114/318/4 1/1/4
f 80/219/4 83/227/4 95/261/4 93/256/4
f 72/197/4 75/205/4 84/230/4 79/217/4
f 4/6/5 55/151/5 59/161/5
f 56/153/5 48/132/5 51/140/5 60/165/5
f 49/134/5 39/107/5 43/117/5 52/142/5
f 40/109/5 36/99/5 37/101/5 44/120/5
f 34/93/5 11/25/5 6/11/5 31/86/5
f 14/34/5 7/13/5 10/23/5 19/50/5
f 22/58/5 13/31/5 18/46/5 26/70/5
f 2/3/5 24/64/5 25/67/5
f 121/339/6 123/343/6 124/345/6 122/341/6
f 58/158/6 65/178/6 66/181/6 71/195/6 73/199/6 47/129/6 48/132/6 56/153/6
f 63/173/6 57/155/6 55/151/6 4/6/6 3/5/6 64/176/6
f 65/178/2 58/158/2 122/341/2 124/345/2
f 74/202/2 50/136/2 128/353/2 126/349/2
f 50/136/6 74/202/6 72/197/6 79/217/6 81/221/6 41/111/6 39/107/6 49/134/6
f 41/111/3 81/221/3 131/359/3 129/355/3
f 42/114/6 82/224/6 80/219/6 93/256/6 94/258/6 92/254/6 33/91/6 35/96/6 36/99/6 40/109/6
f 127/351/6 125/347/6 126/349/6 128/353/6
f 47/129/3 73/199/3 125/347/3 127/351/3
f 129/355/6 131/359/6 132/361/6 130/357/6
f 82/224/2 42/114/2 130/357/2 132/361/2
f 61/167/1 67/183/1 133/363/1 135/367/1
f 62/170/3 69/189/3 70/193/3 3/5/3 4/6/3 59/162/3
f 53/145/1 77/211/1 137/371/1 139/375/1
f 77/211/3 53/145/3 52/143/3 43/118/3 46/126/3 86/236/3 84/231/3 75/206/3
f 45/123/1 85/233/1 143/383/1 141/379/1
f 85/233/3 45/123/3 44/121/3 37/102/3 38/104/3 29/80/3 87/240/3 96/264/3 95/262/3 83/228/3
f 135/367/3 133/363/3 134/365/3 136/369/3
f 69/189/6 62/170/6 136/369/6 134/365/6
f 138/373/3 140/377/3 139/375/3 137/371/3
f 78/214/6 54/148/6 140/377/6 138/373/6
f 144/385/3 142/381/3 141/379/3 143/383/3
f 86/236/6 46/126/6 142/381/6 144/385/6
f 147/391/1 145/387/1 146/389/1 148/393/1
f 100/276/1 8/16/1 7/14/1 14/35/1 15/37/1 107/297/1 105/292/1 98/271/1
f 107/297/3 15/37/3 149/395/3 151/399/3
f 108/300/1 16/40/1 13/32/1 22/59/1 21/55/1 115/321/1 113/316/1 106/295/1
f 115/321/3 21/55/3 153/403/3 155/407/3
f 116/324/1 23/61/1 24/65/1 2/4/1 1/2/1 114/319/1
f 99/273/3 5/7/3 145/387/3 147/391/3
f 8/16/2 100/276/2 148/393/2 146/389/2
f 151/399/1 149/395/1 150/397/1 152/401/1
f 16/40/2 108/300/2 152/401/2 150/397/2
f 155/407/1 153/403/1 154/405/1 156/409/1
f 23/61/2 116/324/2 156/409/2 154/405/2
f 158/413/2 160/417/2 159/415/2 157/411/2
f 27/73/2 119/333/2 117/328/2 1/2/2 2/4/2 25/68/2
f 17/43/2 111/309/2 109/304/2 118/331/2 120/336/2 28/76/2 26/71/2 18/47/2
f 104/288/2 12/28/2 11/26/2 34/94/2 32/88/2 33/91/2 92/254/2 91/251/2 90/249/2 102/283/2
f 119/333/1 27/73/1 157/411/1 159/415/1
f 28/76/6 120/336/6 160/417/6 158/413/6
f 164/425/2 163/423/2 161/419/2 162/421/2
f 111/309/1 17/43/1 161/419/1 163/423/1
f 20/52/6 112/312/6 164/425/6 162/421/6
f 167/431/2 165/427/2 166/429/2 168/433/2
f 103/285/1 9/19/1 165/427/1 167/431/1
f 12/28/6 104/288/6 168/433/6 166/429/6
f 7/15/7 8/17/7 9/20/7 10/24/7
f 12/29/8 5/8/8 6/12/8 11/27/8
f 8/18/5 5/9/5 12/30/5 9/21/5
f 13/33/7 16/41/7 17/44/7 18/48/7
f 14/36/8 19/51/8 20/53/8 15/38/8
f 16/42/5 15/39/5 20/54/5 17/45/5
f 25/69/7 24/66/7 23/62/7 27/74/7
f 28/77/8 21/56/8 22/60/8 26/72/8
f 23/63/5 21/57/5 28/78/5 27/75/5
f 31/87/7 30/83/7 32/89/7 34/95/7
f 37/103/8 36/100/8 35/97/8 38/105/8
f 33/92/5 32/90/5 30/84/5 29/81/5 38/106/5 35/98/5
f 45/124/7 42/115/7 40/110/7 44/122/7
f 43/119/8 39/108/8 41/112/8 46/127/8
f 41/113/5 42/116/5 45/125/5 46/128/5
f 53/146/7 50/137/7 49/135/7 52/144/7
f 51/141/8 48/133/8 47/130/8 54/149/8
f 54/150/5 47/131/5 50/138/5 53/147/5
f 61/168/7 58/159/7 56/154/7 60/166/7
f 57/156/8 62/171/8 59/163/8 55/152/8
f 57/157/5 58/160/5 61/169/5 62/172/5
f 66/182/7 65/179/7 67/184/7 68/188/7
f 69/190/8 63/174/8 64/177/8 70/194/8
f 63/175/4 69/191/4 67/185/4 65/180/4
f 72/198/7 74/203/7 77/212/7 75/207/7
f 78/215/8 73/200/8 71/196/8 76/210/8
f 73/201/4 78/216/4 77/213/4 74/204/4
f 80/220/7 82/225/7 85/234/7 83/229/7
f 86/237/8 81/222/8 79/218/8 84/232/8
f 81/223/4 86/238/4 85/235/4 82/226/4
f 90/250/7 91/252/7 89/246/7 88/244/7
f 96/265/8 94/259/8 93/257/8 95/263/8
f 87/241/4 89/247/4 91/253/4 92/255/4 94/260/4 96/266/4
f 103/286/7 100/277/7 98/272/7 101/281/7
f 102/284/8 97/269/8 99/274/8 104/289/8
f 100/278/4 103/287/4 104/290/4 99/275/4
f 111/310/7 108/301/7 106/296/7 109/305/7
f 110/308/8 105/293/8 107/298/8 112/313/8
f 108/302/4 111/311/4 112/314/4 107/299/4
f 119/334/7 116/325/7 114/320/7 117/329/7
f 118/332/8 113/317/8 115/322/8 120/337/8
f 116/326/4 119/335/4 120/338/4 115/323/4
f 58/160/5 57/157/5 121/340/5 122/342/5
f 63/175/4 65/180/4 124/346/4 123/344/4
f 50/138/5 47/131/5 127/352/5 128/354/5
f 73/201/4 74/204/4 126/350/4 125/348/4
f 42/116/5 41/113/5 129/356/5 130/358/5
f 81/223/4 82/226/4 132/362/4 131/360/4
f 62/172/5 61/169/5 135/368/5 136/370/5
f 67/185/4 69/191/4 134/366/4 133/364/4
f 54/150/5 53/147/5 139/376/5 140/378/5
f 77/213/4 78/216/4 138/374/4 137/372/4
f 46/128/5 45/125/5 141/380/5 142/382/5
f 85/235/4 86/238/4 144/386/4 143/384/4
f 5/9/5 8/18/5 146/390/5 145/388/5
f 100/278/4 99/275/4 147/392/4 148/394/4
f 108/302/4 107/299/4 151/400/4 152/402/4
f 15/39/5 16/42/5 150/398/5 149/396/5
f 21/57/5 23/63/5 154/406/5 153/404/5
f 116/326/4 115/323/4 155/408/4 156/410/4
f 120/338/4 119/335/4 159/416/4 160/418/4
f 17/45/5 20/54/5 162/422/5 161/420/5
f 9/21/5 12/30/5 166/430/5 165/428/5
f 27/75/5 28/78/5 158/414/5 157/412/5
f 112/314/4 111/311/4 163/424/4 164/426/4
f 104/290/4 103/287/4 167/432/4 168/434/4
