# Blender 3.5.0
# www.blender.org
mtllib pasto.mtl
o Cube
v 1.000000 1.000000 -1.000000
v 1.000000 -1.000000 -1.000000
v 1.000000 1.000000 1.000000
v 1.000000 -1.000000 1.000000
v -1.000000 1.000000 -1.000000
v -1.000000 -1.000000 -1.000000
v -1.000000 1.000000 1.000000
v -1.000000 -1.000000 1.000000
vn -0.0000 1.0000 -0.0000
vn -0.0000 -0.0000 1.0000
vn -1.0000 -0.0000 -0.0000
vn -0.0000 -1.0000 -0.0000
vn 1.0000 -0.0000 -0.0000
vn -0.0000 -0.0000 -1.0000
vt -0.011719 0.000000
vt 1.000504 0.000852
vt 1.000154 0.999984
vt 1.000302 -0.000085
vt -0.000608 -0.000489
vt 0.000000 1.000488
vt 0.000000 1.000610
vt 1.000123 -0.000424
vt 0.999808 1.000077
vt -0.000051 -0.000004
vt 1.000058 1.000302
vt -0.000116 1.000385
vt 0.999775 -0.001030
vt 0.999492 1.001295
vt 1.000244 0.000488
vt -0.000147 1.000295
vt -0.000171 0.000015
vt -0.000215 -0.000246
vt 1.000308 1.000214
vt 1.000123 1.000171
vt 1.000000 0.000977
vt 0.000240 1.000969
vt -0.000147 0.000000
vt 0.000091 1.000370
s 0
usemtl Material
f 1/1/1 5/13/1 7/19/1 3/7/1
f 4/10/2 3/8/2 7/20/2 8/22/2
f 8/23/3 7/21/3 5/14/3 6/16/3
f 6/17/4 2/4/4 4/11/4 8/24/4
f 2/5/5 1/2/5 3/9/5 4/12/5
f 6/18/6 5/15/6 1/3/6 2/6/6
